<svg xmlns="http://www.w3.org/2000/svg" viewBox="0 0 675 294" width="100%" height="294"><defs><circle id="score" cx="24" cy="24" r="24"/><filter id="shadow" x="-29.2%" y="-20.8%" width="158.3%" height="158.3%" filterUnits="objectBoundingBox"><feOffset result="shadowOffsetOuter1" in="SourceAlpha" dy="4"/><feGaussianBlur result="shadowBlurOuter1" in="shadowOffsetOuter1" stdDeviation="4"/><feColorMatrix in="shadowBlurOuter1" values="0 0 0 0 0 0 0 0 0 0 0 0 0 0 0 0 0 0 0.15 0"/></filter><mask id="fill-mask"><rect id="fill-mask-path" fill="white" x="32" y="0" width="268.84" height="100%"/></mask></defs><g id="x-axis" transform="translate(32 32)"><g id="level"><polygon fill="#3ac" points="398,24 611,24 611,26 398,26"/><rect fill="#ff9400" x="0" y="24" width="213" height="2"/><polygon fill="#36d57d" points="215,24 396,24 396,26 215,26"/><text id="label-intermediate" font-family="Lato-Regular,Lato" font-size="16px" font-weight="normal" fill="#36d57d" fill-opacity="1"><tspan x="257.084" y="15.008">Intermediate</tspan></text><text id="label-novice" font-family="Lato-Regular,Lato" font-size="16px" font-weight="normal" fill="#ff9400" fill-opacity="0.3"><tspan x="80.428" y="15.304">Novice</tspan></text><text id="label-advanced" font-family="Lato-Regular,Lato" font-size="16px" font-weight="normal" fill="#3ac" fill-opacity="0.3"><tspan x="468.084" y="15.304">Advanced</tspan></text></g><path stroke="#fff" stroke-opacity="0.3" d="M 0 203.5 L 611 203.5"/></g><g id="curve-line" fill-rule="nonzero" transform="translate(31 97)"><path fill="#ff9400" d="M 214 55.3359 L 214 58.0361 C 208.59 62.9415 203.253 67.7615 200.46 70.2216 C 192.774 76.9931 185.79 82.8487 178.836 88.2852 C 129.166 127.114 85.4267 140 1.00013 140 C 0.447848 140 0.000132297 139.552 0.000132297 139 C 0.000132297 138.448 0.447848 138 1.00013 138 C 85.0073 138 128.314 125.242 177.604 86.7095 C 184.524 81.2995 191.479 75.4683 199.138 68.7209 C 202.154 66.0643 208.153 60.6414 214 55.3359 Z"/><path fill="#36d57d" d="M 216 53.5206 C 222.387 47.7205 228.149 42.4692 229.033 41.6754 C 240.332 31.5375 248.838 24.4812 257.143 18.593 C 274.626 6.19735 290.211 7.10543e-015 306.5 7.10543e-015 C 322.789 7.10543e-015 338.375 6.19706 355.859 18.5919 C 364.166 24.4809 372.674 31.5386 383.975 41.6782 C 384.862 42.4739 390.617 47.7197 397 53.5155 L 397 56.2168 C 390.099 49.9533 383.582 44.0122 382.639 43.1668 C 371.391 33.074 362.934 26.0595 354.702 20.2235 C 337.528 8.04797 322.317 2 306.5 2 C 290.684 2 275.474 8.04824 258.3 20.2245 C 250.07 26.0596 241.616 33.0728 230.369 43.164 C 229.429 44.0072 222.906 49.9544 216 56.2218 L 216 53.5206 Z"/><path fill="#3ac" d="M 399 55.3309 C 404.853 60.6408 410.859 66.0702 413.877 68.729 C 421.532 75.473 428.484 81.3016 435.401 86.7095 C 484.683 125.239 527.999 138 612 138 C 612.552 138 613 138.448 613 139 C 613 139.552 612.552 140 612 140 C 527.579 140 483.831 127.112 434.169 88.2851 C 427.218 82.8509 420.237 76.9978 412.555 70.2297 C 409.76 67.7674 404.415 62.9412 399 58.0311 L 399 55.3309 Z"/></g><g id="curve-fill" mask="url(&quot;#fill-mask&quot;)"><g fill-opacity="0.2" transform="translate(32 98)"><path fill="#ff9400" d="M 213 55.6991 L 213 138 L 0 138 C 85.42 138 128.464 124.612 177.22 86.4973 C 190.045 76.4709 201.825 65.8894 213 55.6991 Z"/><path fill="#36d57d" d="M 215 53.8739 C 246.468 25.1383 273.291 0 305.5 0 C 337.709 0 364.533 25.1346 396 53.8688 L 396 138 L 215 138 L 215 53.8739 Z"/><path fill="#3ac" d="M 398 55.694 C 409.177 65.8856 420.958 76.4689 433.785 86.4973 C 482.533 124.609 525.707 139.001 611 138 L 398 138 L 398 55.694 Z"/></g></g><g id="score-indicator" transform="translate(276.96 53)"><path stroke="#fff" stroke-dasharray="2px" stroke-opacity="0.3" d="M 23.5 4 L 23.5 182.807"/><g transform="translate(0 21)"><g><use filter="url(#shadow)" fill="#000" xmlns:xlink="http://www.w3.org/1999/xlink" xlink:href="#score"/><use fill="#fff" xmlns:xlink="http://www.w3.org/1999/xlink" xlink:href="#score"/></g></g><text id="score-text" font-family="Lato-Bold,Lato" font-size="18px" font-weight="bold" alignment-baseline="central" fill="#0c1626" text-anchor="middle" x="23" y="45">88</text><rect id="level-indicator" fill="#36d57d" stroke="#14243e" stroke-width="2" x="21" y="-1" width="5" height="10" rx="1.5"/><text id="percentile" font-family="Lato-Regular,Lato" font-size="14px" font-weight="normal" fill="#fff" text-anchor="middle" x="23" y="201">34th percentile</text></g></svg>